<?xml version="1.0" encoding="iso-8859-1"?>
<!-- Uploaded to: SVG Repo, www.svgrepo.com, Generator: SVG Repo Mixer Tools -->
<!DOCTYPE svg PUBLIC "-//W3C//DTD SVG 1.1//EN" "http://www.w3.org/Graphics/SVG/1.1/DTD/svg11.dtd">
<svg fill="#000000" height="800px" width="800px" version="1.1" id="Capa_1" xmlns="http://www.w3.org/2000/svg" xmlns:xlink="http://www.w3.org/1999/xlink" 
	 viewBox="0 0 492.378 492.378" xml:space="preserve">
<g>
	<path d="M327.606,14.073C302.091,5.11,274.774,0,246.216,0c-23.099,0-45.359,3.417-66.568,9.363l0.018,152.669L327.606,14.073z"/>
	<path d="M468.235,140.417c-21.582-45.224-56.443-82.795-99.674-107.648L260.913,140.417H468.235z"/>
	<path d="M12.249,169.751c-7.865,24.08-12.247,49.726-12.247,76.415c0,24.465,3.69,48.044,10.328,70.353h148.706L12.249,169.751z"/>
	<path d="M355.753,466.411c43.773-21.838,80.117-56.199,104.273-98.557L355.753,263.571V466.411z"/>
	<path d="M483.786,182.597H334.424l144.19,144.156c8.766-25.272,13.762-52.316,13.762-80.587
		C492.376,224.149,489.22,202.905,483.786,182.597z"/>
	<path d="M170.382,480.355c23.903,7.735,49.352,12.022,75.834,12.022c23.387,0,45.918-3.482,67.357-9.572V337.134L170.382,480.355z"
		/>
	<path d="M27.399,358.716c22.632,43.887,57.896,80.182,101.174,103.781l103.778-103.781H27.399z"/>
	<path d="M137.453,25.579c-45.39,22.42-82.975,58.2-107.247,102.476l107.247,107.247V25.579z"/>
</g>
</svg>